<?xml version="1.0" standalone="no"?>
<!DOCTYPE svg PUBLIC "-//W3C//DTD SVG 20010904//EN"
 "http://www.w3.org/TR/2001/REC-SVG-20010904/DTD/svg10.dtd">
<svg version="1.0" xmlns="http://www.w3.org/2000/svg"
 width="981.000000pt" height="998.000000pt" viewBox="0 0 981.000000 998.000000"
 preserveAspectRatio="xMidYMid meet">

<g transform="translate(0.000000,998.000000) scale(0.100000,-0.100000)"
fill="#000000" stroke="none">
<path d="M4681 9968 c-1214 -56 -2351 -560 -3221 -1428 -385 -383 -682 -801
-921 -1295 -237 -491 -423 -1116 -488 -1645 -189 -1527 305 -3012 1369 -4113
791 -820 1849 -1339 2965 -1457 390 -41 916 -25 1325 41 1302 210 2489 969
3235 2067 409 602 673 1263 795 1986 49 290 64 486 64 836 0 401 -22 652 -84
963 -152 754 -475 1491 -915 2082 -273 368 -632 727 -1000 1000 -745 554
-1623 888 -2515 954 -195 15 -421 18 -609 9z m627 -673 c520 -54 988 -192
1473 -435 445 -222 774 -456 1105 -785 767 -763 1201 -1751 1253 -2850 29
-607 -76 -1228 -307 -1815 -220 -560 -536 -1046 -951 -1460 -665 -663 -1517
-1090 -2421 -1214 -320 -44 -799 -47 -1100 -6 -1005 134 -1844 564 -2549 1306
-534 561 -904 1280 -1075 2090 -67 317 -90 592 -83 961 6 294 22 452 72 715
240 1245 975 2297 2053 2940 502 299 1193 513 1812 561 139 11 583 6 718 -8z"/>
<path d="M2985 6637 c-74 -29 -128 -74 -168 -138 -45 -74 -45 -75 -51 -1179
-2 -575 -10 -1208 -16 -1408 -9 -274 -9 -375 -1 -410 16 -62 70 -141 126 -181
90 -64 32 -61 1094 -61 l967 0 431 -324 431 -323 128 306 c70 168 129 314 132
324 4 16 27 17 311 17 352 0 369 3 450 76 29 26 62 69 78 102 l28 57 0 1450 0
1450 -26 56 c-35 73 -85 128 -151 165 l-53 29 -1840 2 c-1395 1 -1847 -1
-1870 -10z"/>
</g>
</svg>
