<?xml version="1.0" standalone="no"?>
<!DOCTYPE svg PUBLIC "-//W3C//DTD SVG 20010904//EN"
 "http://www.w3.org/TR/2001/REC-SVG-20010904/DTD/svg10.dtd">
<svg version="1.0" xmlns="http://www.w3.org/2000/svg"
 width="466.000000pt" height="465.000000pt" viewBox="0 0 466.000000 465.000000"
 preserveAspectRatio="xMidYMid meet">

<g transform="translate(0.000000,465.000000) scale(0.100000,-0.100000)"
fill="#000000" stroke="none">
<path d="M2005 4634 c-505 -77 -958 -302 -1307 -648 -184 -182 -327 -378 -440
-601 -126 -248 -201 -494 -239 -775 -16 -122 -16 -438 0 -560 59 -438 234
-849 505 -1186 78 -97 253 -272 351 -350 322 -257 708 -423 1140 -490 207 -32
526 -23 760 22 810 155 1498 758 1758 1540 89 269 120 459 120 744 0 377 -75
699 -239 1029 -351 707 -1010 1176 -1797 1281 -112 14 -503 11 -612 -6z m713
-388 c817 -174 1424 -818 1546 -1638 21 -137 21 -419 1 -553 -88 -590 -428
-1099 -936 -1404 -186 -111 -389 -189 -616 -238 -121 -26 -143 -28 -383 -28
-239 0 -263 2 -381 27 -391 84 -726 265 -999 538 -275 275 -453 606 -537 997
-26 121 -28 143 -28 383 0 240 2 262 28 383 176 820 805 1418 1632 1552 66 10
152 13 320 11 202 -3 245 -7 353 -30z"/>
<path d="M2135 3858 c-33 -18 -35 -28 -35 -150 l0 -118 230 0 230 0 0 118 c0
64 -4 122 -8 128 -19 28 -56 34 -224 34 -110 0 -180 -5 -193 -12z"/>
<path d="M1352 3353 l3 -138 975 0 975 0 3 138 3 137 -981 0 -981 0 3 -137z"/>
<path d="M1450 3086 c0 -18 20 -323 45 -677 25 -354 56 -822 70 -1039 14 -217
30 -412 36 -433 12 -44 59 -101 103 -125 28 -15 85 -17 626 -17 541 0 598 2
626 17 44 24 91 81 103 125 6 21 22 216 36 433 14 217 45 685 70 1040 25 355
45 660 45 678 l0 32 -880 0 -880 0 0 -34z m478 -179 c12 -13 24 -36 27 -52 3
-17 26 -437 51 -934 50 -994 51 -951 -13 -977 -40 -17 -74 -10 -104 22 -23 24
-23 32 -70 942 -27 504 -48 927 -49 939 0 12 12 35 26 52 21 26 33 31 68 31
31 0 48 -6 64 -23z m467 -2 l25 -24 0 -941 c0 -655 -3 -947 -11 -962 -6 -11
-26 -26 -45 -34 -29 -12 -39 -12 -68 0 -19 8 -39 23 -45 34 -8 15 -11 307 -11
962 l0 941 25 24 c34 35 96 35 130 0z m469 -6 c14 -17 26 -40 26 -52 -1 -12
-22 -435 -49 -939 -47 -910 -47 -918 -70 -942 -30 -32 -64 -39 -104 -22 -64
26 -63 -17 -13 977 25 497 48 917 51 934 8 47 42 75 91 75 35 0 47 -5 68 -31z"/>
</g>
</svg>
