<?xml version="1.0" standalone="no"?>
<!DOCTYPE svg PUBLIC "-//W3C//DTD SVG 20010904//EN"
 "http://www.w3.org/TR/2001/REC-SVG-20010904/DTD/svg10.dtd">
<svg version="1.0" xmlns="http://www.w3.org/2000/svg"
 width="235.000000pt" height="236.000000pt" viewBox="0 0 235.000000 236.000000"
 preserveAspectRatio="xMidYMid meet">

<g transform="translate(0.000000,236.000000) scale(0.100000,-0.100000)"
fill="#000000" stroke="none">
<path d="M1046 2349 c-449 -47 -841 -364 -985 -795 -122 -364 -58 -768 170
-1074 339 -456 946 -604 1455 -355 569 277 816 942 566 1523 -167 387 -544
661 -968 702 -112 11 -128 11 -238 -1z m340 -173 c472 -101 804 -512 804 -996
0 -483 -334 -897 -804 -996 -503 -106 -1009 181 -1176 666 -68 200 -68 460 0
660 121 351 427 610 798 676 94 16 278 12 378 -10z"/>
<path d="M633 1543 c-10 -3 -13 -68 -13 -273 0 -235 2 -269 16 -274 30 -12
239 -7 252 6 9 9 12 84 12 274 0 230 -2 263 -16 268 -19 7 -233 7 -251 -1z
m165 -95 c7 -7 12 -21 12 -33 0 -12 -5 -26 -12 -33 -28 -28 -78 -7 -78 33 0
12 5 26 12 33 7 7 21 12 33 12 12 0 26 -5 33 -12z"/>
<path d="M1026 1540 c-16 -5 -39 -19 -52 -31 -24 -22 -24 -24 -24 -238 l0
-216 36 -20 c46 -25 86 -76 126 -162 28 -57 33 -83 38 -166 6 -119 22 -137 90
-102 72 37 105 120 98 245 l-5 88 131 4 c141 4 181 16 211 62 12 19 14 42 9
124 -5 66 -12 106 -21 113 -7 6 -13 30 -13 53 0 25 -10 58 -25 84 -13 24 -29
62 -35 84 -6 22 -22 51 -35 64 -24 24 -24 24 -262 23 -131 0 -251 -5 -267 -9z"/>
</g>
</svg>
