<?xml version="1.0" standalone="no"?>
<!DOCTYPE svg PUBLIC "-//W3C//DTD SVG 20010904//EN"
 "http://www.w3.org/TR/2001/REC-SVG-20010904/DTD/svg10.dtd">
<svg version="1.0" xmlns="http://www.w3.org/2000/svg"
 width="203.000000pt" height="203.000000pt" viewBox="0 0 203.000000 203.000000"
 preserveAspectRatio="xMidYMid meet">

<g transform="translate(0.000000,203.000000) scale(0.100000,-0.100000)"
fill="#000000" stroke="none">
<path d="M845 2024 c-11 -3 -56 -14 -100 -25 -185 -46 -389 -179 -518 -340
-81 -100 -166 -265 -199 -389 -19 -73 -22 -109 -22 -260 0 -160 3 -183 27
-265 113 -378 405 -652 780 -729 100 -21 304 -21 404 0 307 63 564 260 703
539 27 55 62 141 77 190 24 82 27 105 27 265 1 211 -15 284 -99 455 -100 205
-260 367 -459 464 -162 79 -221 93 -426 97 -96 1 -184 1 -195 -2z m285 -84
c47 -6 129 -26 183 -44 285 -97 503 -325 593 -621 26 -83 28 -103 28 -260 0
-156 -2 -177 -27 -258 -100 -324 -343 -560 -664 -644 -139 -36 -317 -36 -456
0 -321 84 -564 320 -664 644 -25 81 -27 102 -27 258 0 157 2 177 28 260 90
296 307 523 594 621 144 50 262 62 412 44z"/>
<path d="M1185 1400 l-60 -60 103 -102 102 -103 60 60 c33 33 60 63 60 68 0
13 -182 197 -194 197 -7 0 -38 -27 -71 -60z"/>
<path d="M853 1072 l-243 -237 99 -104 100 -104 78 71 c43 39 154 147 248 241
l170 171 -100 100 c-55 55 -102 100 -105 100 -3 0 -114 -107 -247 -238z"/>
<path d="M576 746 c-3 -31 -9 -81 -12 -111 l-6 -56 98 7 c55 4 105 10 111 13
8 4 -22 41 -86 105 l-98 98 -7 -56z"/>
</g>
</svg>
