<?xml version="1.0" standalone="no"?>
<!DOCTYPE svg PUBLIC "-//W3C//DTD SVG 20010904//EN"
 "http://www.w3.org/TR/2001/REC-SVG-20010904/DTD/svg10.dtd">
<svg version="1.0" xmlns="http://www.w3.org/2000/svg"
 width="235.000000pt" height="236.000000pt" viewBox="0 0 235.000000 236.000000"
 preserveAspectRatio="xMidYMid meet">

<g transform="translate(0.000000,236.000000) scale(0.100000,-0.100000)"
fill="#000000" stroke="none">
<path d="M1053 2350 c-268 -28 -540 -164 -732 -365 -544 -573 -372 -1512 343
-1860 444 -217 960 -137 1319 204 491 467 490 1236 -2 1704 -248 236 -587 352
-928 317z m282 -165 c425 -69 760 -393 841 -813 18 -95 18 -289 0 -384 -71
-369 -339 -668 -701 -781 -504 -157 -1048 104 -1246 598 -92 231 -92 519 0
748 178 445 638 708 1106 632z"/>
<path d="M1178 1708 c-12 -10 -17 -36 -20 -98 -4 -67 -12 -101 -37 -162 -36
-85 -107 -174 -147 -184 l-24 -6 0 -217 c0 -296 -18 -281 345 -281 l243 0 25
29 c13 16 28 46 31 66 4 19 17 51 30 70 13 18 26 56 30 84 4 28 11 53 16 56 6
3 10 32 10 63 0 31 4 73 10 92 8 27 6 41 -8 69 -28 59 -66 71 -217 71 l-130 0
0 118 c0 112 -1 121 -27 160 -42 62 -100 93 -130 70z"/>
<path d="M625 1297 c-3 -7 -4 -129 -3 -272 l3 -260 130 -3 c113 -2 131 0 142
15 16 22 18 484 3 514 -10 17 -22 19 -141 19 -95 0 -131 -3 -134 -13z m174
-359 c19 -49 -39 -87 -74 -48 -15 17 -16 24 -7 45 16 34 69 36 81 3z"/>
</g>
</svg>
