<?xml version="1.0" standalone="no"?>
<!DOCTYPE svg PUBLIC "-//W3C//DTD SVG 20010904//EN"
 "http://www.w3.org/TR/2001/REC-SVG-20010904/DTD/svg10.dtd">
<svg version="1.0" xmlns="http://www.w3.org/2000/svg"
 width="592.000000pt" height="132.000000pt" viewBox="0 0 592.000000 132.000000"
 preserveAspectRatio="xMidYMid meet">

<g transform="translate(0.000000,132.000000) scale(0.100000,-0.100000)"
fill="#000000" stroke="none">
<path d="M5325 1262 c-70 -24 -138 -66 -171 -104 -83 -98 -104 -242 -51 -349
49 -102 134 -161 349 -243 161 -62 201 -102 179 -177 -9 -29 -20 -42 -54 -58
-53 -25 -154 -28 -217 -6 -53 19 -128 74 -160 119 -14 20 -28 34 -32 33 -11
-4 -148 -175 -148 -185 0 -19 113 -111 180 -146 88 -47 167 -66 265 -66 139 1
233 35 317 117 71 70 93 127 93 243 -1 73 -5 103 -19 130 -54 101 -111 141
-322 226 -194 79 -232 111 -213 179 11 38 40 62 92 76 69 18 170 -17 268 -93
20 -15 39 -28 42 -28 3 0 37 41 76 91 l71 91 -43 34 c-59 48 -164 101 -233
119 -78 20 -206 19 -269 -3z"/>
<path d="M40 1160 l0 -110 160 0 160 0 0 -480 0 -480 120 0 120 0 0 480 0 480
165 0 165 0 0 110 0 110 -445 0 -445 0 0 -110z"/>
<path d="M2000 681 l0 -591 273 0 c211 0 286 3 331 15 109 28 187 91 230 184
17 37 21 65 21 146 0 89 -3 105 -27 151 -15 28 -48 70 -73 92 l-46 40 35 46
c46 61 61 107 60 196 0 134 -66 232 -193 282 -52 21 -74 22 -333 26 l-278 4 0
-591z m464 359 c83 -19 120 -75 97 -148 -20 -65 -48 -77 -193 -80 l-128 -4 0
121 0 121 93 0 c50 0 110 -5 131 -10z m-1 -460 c109 -17 152 -57 152 -140 0
-40 -5 -54 -28 -78 -38 -40 -92 -52 -231 -52 l-116 0 0 140 0 140 83 0 c45 0
108 -4 140 -10z"/>
<path d="M3208 1233 l-108 -34 0 -554 0 -555 385 0 385 0 0 110 0 110 -270 0
-270 0 0 480 c0 264 -3 480 -7 479 -5 -1 -56 -17 -115 -36z"/>
<path d="M4070 680 l0 -590 385 0 385 0 0 110 0 110 -265 0 -265 0 0 125 0
125 265 0 265 0 0 115 0 115 -265 0 -265 0 0 130 0 130 265 0 265 0 0 110 0
110 -385 0 -385 0 0 -590z"/>
<path d="M1040 1130 l0 -130 45 0 c25 0 45 -3 45 -6 0 -3 -27 -106 -59 -228
-33 -121 -72 -266 -86 -321 -15 -55 -42 -156 -61 -224 -26 -96 -31 -127 -21
-133 25 -16 35 -6 51 55 10 34 22 77 27 95 l11 32 358 0 c333 0 359 -1 363
-17 3 -10 13 -49 23 -88 20 -82 23 -86 50 -79 23 6 37 -56 -140 603 -42 156
-76 290 -76 297 0 10 13 14 45 14 l45 0 0 130 0 130 -310 0 -310 0 0 -130z
m570 0 l0 -80 -265 0 -265 0 0 80 0 80 265 0 265 0 0 -80z m-35 -365 c34 -126
65 -242 69 -257 l6 -28 -300 0 c-204 0 -300 3 -300 11 0 5 11 49 24 97 13 48
43 160 67 250 l44 162 164 -2 164 -3 62 -230z m96 -362 c6 -16 13 -40 16 -55
l6 -28 -346 0 c-273 0 -345 3 -342 13 2 6 9 31 15 55 l11 42 315 0 314 0 11
-27z"/>
</g>
</svg>
