<?xml version="1.0" standalone="no"?>
<!DOCTYPE svg PUBLIC "-//W3C//DTD SVG 20010904//EN"
 "http://www.w3.org/TR/2001/REC-SVG-20010904/DTD/svg10.dtd">
<svg version="1.0" xmlns="http://www.w3.org/2000/svg"
 width="1280.000000pt" height="1021.000000pt" viewBox="0 0 1280.000000 1021.000000"
 preserveAspectRatio="xMidYMid meet">
<metadata>
Created by potrace 1.15, written by Peter Selinger 2001-2017
</metadata>
<g transform="translate(0.000000,1021.000000) scale(0.100000,-0.100000)"
fill="#000000" stroke="none">
<path d="M12150 10203 c-711 -73 -1954 -528 -3045 -1116 -1599 -861 -2895
-1994 -3645 -3187 -52 -83 -100 -159 -106 -168 -8 -10 -7 9 3 58 24 123 8 198
-51 238 -66 45 -144 17 -247 -90 -121 -126 -229 -295 -409 -638 -189 -361
-322 -608 -335 -627 -7 -10 0 36 16 108 16 68 36 168 45 221 14 89 14 102 -1
153 -14 50 -20 58 -58 76 -67 33 -109 17 -194 -76 -120 -130 -254 -355 -538
-900 -107 -205 -203 -388 -215 -407 l-20 -33 6 75 c17 206 -66 309 -191 236
-94 -56 -212 -261 -425 -746 -40 -91 -101 -228 -135 -306 -34 -78 -98 -201
-141 -275 -161 -275 -203 -353 -231 -426 l-28 -74 -365 -341 c-689 -644 -1323
-1267 -1749 -1720 l-64 -68 58 -77 c32 -43 59 -79 60 -80 3 -5 224 116 308
169 384 240 890 620 1626 1222 249 203 298 240 322 238 75 -8 225 28 445 107
61 22 173 56 250 76 289 75 331 87 409 112 176 57 245 116 245 211 0 29 -7 45
-28 65 -15 15 -33 27 -40 27 -41 0 17 26 241 109 387 145 563 217 667 274 176
97 250 198 203 278 -32 55 -82 73 -207 72 -93 0 -107 2 -92 13 68 49 596 303
1406 677 596 275 693 321 845 406 209 117 285 187 285 263 0 85 -51 122 -165
120 -60 -1 -267 -38 -375 -67 -30 -8 -56 -13 -57 -11 -2 2 52 34 119 72 807
448 1962 1136 2273 1353 105 73 305 240 710 591 182 157 465 400 630 540 1407
1190 2216 2005 2503 2519 119 212 154 363 116 491 -41 137 -144 217 -326 254
-70 15 -215 19 -308 9z"/>
</g>
</svg>
